<svg xmlns="http://www.w3.org/2000/svg" viewBox="0 0 48 48"><defs><style>.cls-3{fill:#6fabe6}.cls-4{fill:#82bcf4}.cls-6{fill:#edebf2}.cls-9{fill:#f6ccaf}.cls-10{fill:#ffdec7}</style></defs><g id="_21._Discussion" data-name="21. Discussion"><path d="M36 2v8a1 1 0 0 1-1 1h-1v4l-4-4h-4l-4-6V2a1 1 0 0 1 1-1h12a1 1 0 0 1 1 1z" style="fill:#fc6"/><path d="M36 2v7h-4a8 8 0 0 1-8-8h11a1 1 0 0 1 1 1z" style="fill:#ffde76"/><path class="cls-3" d="M47 38v6H31v-6a4 4 0 0 1 2.36-3.64c1-.47 1.75-.36 3.64-.36l2 2 2-2h2a4 4 0 0 1 4 4z"/><path class="cls-4" d="M47 38v4h-8c-4.44 0-7-4.64-5.64-7.64 1-.47 1.75-.36 3.64-.36l2 2 2-2h2a4 4 0 0 1 4 4z"/><path class="cls-3" d="M17 38v6H1v-6a4 4 0 0 1 2.36-3.64C4.39 33.89 5.11 34 7 34l2 2 2-2h2a4 4 0 0 1 4 4z"/><path class="cls-4" d="M17 38v4H9c-4.44 0-7-4.64-5.64-7.64C4.39 33.89 5.11 34 7 34l2 2 2-2h2a4 4 0 0 1 4 4z"/><path d="M26 6v8a1 1 0 0 1-1 1h-7l-4 4v-4h-1a1 1 0 0 1-1-1V6a1 1 0 0 1 1-1h12a1 1 0 0 1 1 1z" style="fill:#9dcc6b"/><path class="cls-6" d="M28.29 5.29a1 1 0 0 1 1.42 1.42 1 1 0 0 1-1.42-1.42zM32 7a1 1 0 1 1 1-1 1 1 0 0 1-1 1z"/><path d="M32 41v6H16v-6a4 4 0 0 1 2.36-3.64c1-.47 1.75-.36 3.64-.36l2 2 2-2h2a4 4 0 0 1 4 4z" style="fill:#db5669"/><path d="M32 41v4h-8c-4.44 0-7-4.64-5.64-7.64 1-.47 1.75-.36 3.64-.36l2 2 2-2h2a4 4 0 0 1 4 4z" style="fill:#f26674"/><path class="cls-9" d="M28 29a4 4 0 1 1-5.64-3.64A4 4 0 0 1 28 29z"/><path class="cls-10" d="M27.64 30.64a4 4 0 0 1-5.28-5.28 4 4 0 0 1 5.28 5.28z"/><circle class="cls-9" cx="39" cy="26" r="4"/><circle class="cls-9" cx="9" cy="26" r="4"/><path class="cls-10" d="M42.64 27.64a4 4 0 0 1-5.28-5.28 4 4 0 0 1 5.28 5.28zM12.64 27.64a4 4 0 0 1-5.28-5.28 4 4 0 0 1 5.28 5.28z"/><path d="M26 6v7h-4a8 8 0 0 1-8-8h11a1 1 0 0 1 1 1z" style="fill:#b5e08c"/><path class="cls-6" d="M18.29 9.29a1 1 0 0 1 1.42 1.42 1 1 0 0 1-1.42-1.42zM22 11a1 1 0 0 1-1-.8 1 1 0 1 1 1 .8zM16 11a1 1 0 0 1-1-.8 1 1 0 1 1 1 .8z"/></g></svg>