<svg xmlns="http://www.w3.org/2000/svg" viewBox="0 0 64 64" width="150" height="150"><g data-name="Sweater"><path d="M45 8v9.27a2 2 0 0 0-1-.27h-3v-4s-2 0-5.4-3c0 0-3.6 4-12.6 4v3h-3a2 2 0 0 0-1 .27V8a7 7 0 0 1 7-7h12a3 3 0 0 1 3 3 4 4 0 0 1 4 4z" style="fill:#494a59"/><path d="M37.953 33.9 52.1 40.35a9.992 9.992 0 0 1 5.9 9.12v12.78a.75.75 0 0 1-.75.75H6.75a.75.75 0 0 1-.75-.75V49.47a9.992 9.992 0 0 1 5.9-9.12l14.151-6.45" style="fill:#4294ff"/><path d="M32.75 44.5V63h-1.5V44.5a.75.75 0 0 1 1.5 0zM48.75 51v12h-1.5V51a.75.75 0 0 1 1.5 0zM16.75 51v12h-1.5V51a.75.75 0 0 1 1.5 0z" style="fill:#376cfb"/><path d="M38 26.7V33a6.009 6.009 0 0 1-6 6 6 6 0 0 1-6-6v-6.29a8.991 8.991 0 0 0 12-.01z" style="fill:#eac2b9"/><path d="M23 13v8a9 9 0 0 0 9 9 9 9 0 0 0 9-9v-9s-2 0-5.4-3c0 0-3.6 4-12.6 4z" style="fill:#ffddd4"/><path d="M44 16h-3l-.226 7H44a2 2 0 0 0 2-2v-3a2 2 0 0 0-2-2zM23 16h-3a2 2 0 0 0-2 2v3a2 2 0 0 0 2 2h3.225z" style="fill:#eac2b9"/><path d="m38 30 .568.213a6 6 0 0 1 3.375 8.064 6.1 6.1 0 0 1-1.219 1.7L32 49s10.38-6.891 17.8-8.461a1.977 1.977 0 0 0 1.415-2.751C49.751 34.551 46.136 29.456 38 30M26 30l-.568.213a6 6 0 0 0-3.375 8.064 6.1 6.1 0 0 0 1.219 1.7L32 49s-10.38-6.891-17.8-8.461a1.977 1.977 0 0 1-1.415-2.751C14.249 34.551 17.864 29.456 26 30" style="fill:#376cfb"/><path d="m42.45 36.01-4.53-2.04A6.143 6.143 0 0 0 38 33v-3l.57.21a5.988 5.988 0 0 1 3.88 5.8z" style="fill:#2946ed"/><path d="M42.45 36.01a5.547 5.547 0 0 1-1.73 3.97L32 49l-8.72-9.02a5.548 5.548 0 0 1-1.73-3.97l4.53-2.05a5.994 5.994 0 0 0 10.16 3.28 5.9 5.9 0 0 0 1.68-3.27z" style="fill:#343544"/><path d="m26.08 33.96-4.53 2.05a5.988 5.988 0 0 1 3.88-5.8L26 30v3a6.017 6.017 0 0 0 .08.96z" style="fill:#2946ed"/></g></svg>